<?xml version="1.0" encoding="iso-8859-1"?>
<!-- Generator: Adobe Illustrator 19.0.0, SVG Export Plug-In . SVG Version: 6.00 Build 0)  -->
<svg version="1.1" id="Capa_1" xmlns="http://www.w3.org/2000/svg" xmlns:xlink="http://www.w3.org/1999/xlink" x="0px" y="0px"
	 viewBox="0 0 512.037 512.037" style="enable-background:new 0 0 512.037 512.037;" xml:space="preserve">
<g transform="translate(0 -1)">
	<g transform="translate(1 2)">
		<path style="fill:#E3E7F2;" d="M41.952,135.571c0-32.99,34.385-59.733,76.8-59.733s76.8,26.743,76.8,59.733v10.4l-153.867,1.867
			L41.952,135.571z"/>
		<path style="fill:#7FACFA;" d="M213.419,135.571H25.685c-9.426,0-17.067,7.641-17.067,17.067v332.8
			c0,9.426,7.641,17.067,17.067,17.067h187.733c9.426,0,17.067-7.641,17.067-17.067v-332.8
			C230.485,143.212,222.844,135.571,213.419,135.571z"/>
		<g>
			<path style="fill:#E3E7F2;" d="M189.788,135.571H23.716c-8.866,0.576-15.607,8.197-15.097,17.067v332.8
				c-0.51,8.87,6.231,16.49,15.097,17.067h166.072c8.866-0.576,15.607-8.197,15.097-17.067v-332.8
				C205.395,143.767,198.654,136.147,189.788,135.571z"/>
			<path style="fill:#E3E7F2;" d="M314.752,135.571c0-32.99,34.385-59.733,76.8-59.733s76.8,26.743,76.8,59.733v10.4l-153.867,1.867
				L314.752,135.571z"/>
		</g>
		
			<linearGradient id="SVGID_1_" gradientUnits="userSpaceOnUse" x1="-49.8706" y1="651.4302" x2="-48.4539" y2="650.6575" gradientTransform="matrix(153.6 0 0 -281.6 7669.812 183644.4531)">
			<stop  offset="0" style="stop-color:#D4E1F4"/>
			<stop  offset="0.1717" style="stop-color:#D4E1F4"/>
			<stop  offset="0.2" style="stop-color:#D4E1F4"/>
			<stop  offset="0.2001" style="stop-color:#DAE4F4"/>
			<stop  offset="0.2007" style="stop-color:#EBEBF4"/>
			<stop  offset="0.2014" style="stop-color:#F6F1F4"/>
			<stop  offset="0.2023" style="stop-color:#FDF4F4"/>
			<stop  offset="0.205" style="stop-color:#FFF5F4"/>
			<stop  offset="0.2522" style="stop-color:#FFF5F4"/>
			<stop  offset="0.26" style="stop-color:#FFF5F4"/>
			<stop  offset="0.26" style="stop-color:#D4E1F4"/>
			<stop  offset="0.3974" style="stop-color:#D4E1F4"/>
			<stop  offset="0.42" style="stop-color:#D4E1F4"/>
			<stop  offset="0.4201" style="stop-color:#DAE4F4"/>
			<stop  offset="0.4207" style="stop-color:#EBEBF4"/>
			<stop  offset="0.4214" style="stop-color:#F6F1F4"/>
			<stop  offset="0.4223" style="stop-color:#FDF4F4"/>
			<stop  offset="0.425" style="stop-color:#FFF5F4"/>
			<stop  offset="0.4894" style="stop-color:#FFF5F4"/>
			<stop  offset="0.5" style="stop-color:#FFF5F4"/>
			<stop  offset="0.5" style="stop-color:#F9F2F4"/>
			<stop  offset="0.5001" style="stop-color:#E8EBF4"/>
			<stop  offset="0.5003" style="stop-color:#DDE5F4"/>
			<stop  offset="0.5005" style="stop-color:#D6E2F4"/>
			<stop  offset="0.501" style="stop-color:#D4E1F4"/>
			<stop  offset="0.7062" style="stop-color:#D4E1F4"/>
			<stop  offset="0.74" style="stop-color:#D4E1F4"/>
			<stop  offset="0.741" style="stop-color:#FFF5F4"/>
			<stop  offset="0.8346" style="stop-color:#FFF5F4"/>
			<stop  offset="0.85" style="stop-color:#FFF5F4"/>
			<stop  offset="0.851" style="stop-color:#D4E1F4"/>
		</linearGradient>
		<rect x="41.685" y="169.704" style="fill:url(#SVGID_1_);" width="153.6" height="281.6"/>
		<path style="fill:#7FACFA;" d="M485.419,135.571H297.685c-9.426,0-17.067,7.641-17.067,17.067v332.8
			c0,9.426,7.641,17.067,17.067,17.067h187.733c9.426,0,17.067-7.641,17.067-17.067v-332.8
			C502.485,143.212,494.844,135.571,485.419,135.571z"/>
		<path style="fill:#E3E7F2;" d="M461.788,135.571H295.716c-8.866,0.576-15.607,8.197-15.097,17.067v332.8
			c-0.51,8.87,6.231,16.49,15.097,17.067h166.072c8.866-0.576,15.607-8.197,15.097-17.067v-332.8
			C477.395,143.767,470.654,136.147,461.788,135.571z"/>
		
			<linearGradient id="SVGID_2_" gradientUnits="userSpaceOnUse" x1="-49.8706" y1="651.4302" x2="-48.4539" y2="650.6575" gradientTransform="matrix(153.6 0 0 -281.6 7942.8784 183644.4531)">
			<stop  offset="0" style="stop-color:#D4E1F4"/>
			<stop  offset="0.1717" style="stop-color:#D4E1F4"/>
			<stop  offset="0.2" style="stop-color:#D4E1F4"/>
			<stop  offset="0.2001" style="stop-color:#DAE4F4"/>
			<stop  offset="0.2007" style="stop-color:#EBEBF4"/>
			<stop  offset="0.2014" style="stop-color:#F6F1F4"/>
			<stop  offset="0.2023" style="stop-color:#FDF4F4"/>
			<stop  offset="0.205" style="stop-color:#FFF5F4"/>
			<stop  offset="0.2522" style="stop-color:#FFF5F4"/>
			<stop  offset="0.26" style="stop-color:#FFF5F4"/>
			<stop  offset="0.26" style="stop-color:#D4E1F4"/>
			<stop  offset="0.3974" style="stop-color:#D4E1F4"/>
			<stop  offset="0.42" style="stop-color:#D4E1F4"/>
			<stop  offset="0.4201" style="stop-color:#DAE4F4"/>
			<stop  offset="0.4207" style="stop-color:#EBEBF4"/>
			<stop  offset="0.4214" style="stop-color:#F6F1F4"/>
			<stop  offset="0.4223" style="stop-color:#FDF4F4"/>
			<stop  offset="0.425" style="stop-color:#FFF5F4"/>
			<stop  offset="0.4894" style="stop-color:#FFF5F4"/>
			<stop  offset="0.5" style="stop-color:#FFF5F4"/>
			<stop  offset="0.5" style="stop-color:#F9F2F4"/>
			<stop  offset="0.5001" style="stop-color:#E8EBF4"/>
			<stop  offset="0.5003" style="stop-color:#DDE5F4"/>
			<stop  offset="0.5005" style="stop-color:#D6E2F4"/>
			<stop  offset="0.501" style="stop-color:#D4E1F4"/>
			<stop  offset="0.7062" style="stop-color:#D4E1F4"/>
			<stop  offset="0.74" style="stop-color:#D4E1F4"/>
			<stop  offset="0.741" style="stop-color:#FFF5F4"/>
			<stop  offset="0.8346" style="stop-color:#FFF5F4"/>
			<stop  offset="0.85" style="stop-color:#FFF5F4"/>
			<stop  offset="0.851" style="stop-color:#D4E1F4"/>
		</linearGradient>
		<rect x="314.752" y="169.704" style="fill:url(#SVGID_2_);" width="153.6" height="281.6"/>
		<g>
			<circle style="fill:#E3E7F2;" cx="118.485" cy="24.637" r="17.067"/>
			<circle style="fill:#E3E7F2;" cx="391.552" cy="24.637" r="17.067"/>
			<rect x="7.552" y="169.704" style="fill:#E3E7F2;" width="34.133" height="281.6"/>
		</g>
		<rect x="195.285" y="169.704" style="fill:#7FACFA;" width="34.133" height="281.6"/>
		<polygon style="fill:#E3E7F2;" points="161.152,374.504 118.485,331.837 75.819,374.504 75.819,451.304 161.152,451.304 		"/>
		<rect x="468.352" y="169.704" style="fill:#7FACFA;" width="34.133" height="281.6"/>
		<g>
			<rect x="280.619" y="169.704" style="fill:#E3E7F2;" width="34.133" height="281.6"/>
			<rect x="348.885" y="374.504" style="fill:#E3E7F2;" width="85.333" height="76.8"/>
			<polygon style="fill:#E3E7F2;" points="434.219,374.504 348.885,374.504 391.552,331.837 			"/>
			<polygon style="fill:#E3E7F2;" points="161.152,374.504 75.819,374.504 118.485,331.837 			"/>
		</g>
	</g>
	<g transform="translate(1 10)">
		<rect x="7.552" y="161.704" style="fill:#FFFFFF;" width="17.067" height="281.6"/>
		<path style="fill:#FFFFFF;" d="M7.552,161.704h1.024v-17.067c-0.471-8.859,6.254-16.457,15.104-17.067h18.261
			c0-33.024,34.389-59.733,76.8-59.733c4.196-0.019,8.389,0.266,12.544,0.853c-36.437,4.608-64.256,29.184-64.256,58.88H48.768
			c-8.85,0.61-15.575,8.208-15.104,17.067v17.067H32.64"/>
		<path style="fill:#FFFFFF;" d="M32.64,443.304h1.024v34.133c-0.47,8.859,6.254,16.457,15.104,17.067H23.68
			c-8.85-0.61-15.574-8.208-15.104-17.067v-34.133H7.552"/>
		<rect x="280.619" y="161.704" style="fill:#FFFFFF;" width="17.067" height="281.6"/>
		<path style="fill:#FFFFFF;" d="M280.619,161.704h1.024v-17.067c-0.471-8.859,6.254-16.457,15.104-17.067h18.261
			c0-33.024,34.389-59.733,76.8-59.733c4.197-0.019,8.389,0.266,12.544,0.853c-36.437,4.608-64.256,29.184-64.256,58.88h-18.261
			c-8.85,0.61-15.575,8.208-15.104,17.067v17.067h-1.024"/>
		<path style="fill:#FFFFFF;" d="M305.707,443.304h1.024v34.133c-0.47,8.859,6.254,16.457,15.104,17.067h-25.088
			c-8.85-0.61-15.574-8.208-15.104-17.067v-34.133h-1.024"/>
	</g>
	<g>
		<polygon style="fill:#FFFFFF;" points="17.085,171.704 17.085,282.637 17.085,453.304 0.019,453.304 0.019,282.637 0.019,171.704 
					"/>
		<g>
			<path style="fill:#428DFF;" d="M8.552,248.504c2.259-0.034,4.422-0.918,6.059-2.475c3.3-3.365,3.3-8.752,0-12.117l-1.279-1.025
				c-0.476-0.324-0.993-0.583-1.538-0.771c-0.484-0.246-1.003-0.417-1.538-0.509c-0.563-0.096-1.133-0.153-1.704-0.171
				c-2.259,0.031-4.423,0.915-6.059,2.475c-3.222,3.397-3.222,8.721,0,12.117c0.815,0.771,1.77,1.379,2.813,1.792
				C6.333,248.259,7.436,248.491,8.552,248.504z"/>
			<path style="fill:#428DFF;" d="M486.419,129.037h-9.273c-4.926-31.391-36.527-56.232-76.06-59.387V50.665
				c11.739-4.148,18.778-16.156,16.662-28.425c-2.116-12.27-12.77-21.226-25.22-21.203c-12.451,0.024-23.07,9.021-25.14,21.298
				l-20.673,17.694c-6.378,5.507-15.829,5.505-22.204-0.004l-6.508-5.583c-12.757-11.032-31.678-11.03-44.433,0.004l-6.479,5.558
				c-6.379,5.52-15.844,5.518-22.221-0.004l-6.475-5.546c-12.75-11.044-31.676-11.048-44.43-0.009l-6.492,5.558
				c-6.377,5.521-15.84,5.521-22.217,0L144.651,22.34C142.593,10.046,131.968,1.029,119.503,1
				c-12.465-0.029-23.132,8.937-25.248,21.221c-2.115,12.284,4.94,24.302,16.696,28.443V69.65
				c-39.533,3.155-71.134,27.996-76.06,59.387h-9.273c-14.132,0.015-25.585,11.468-25.6,25.6v51.2c0,4.713,3.821,8.533,8.533,8.533
				s8.533-3.82,8.533-8.533v-25.6h17.067v264.533H17.085V274.104c0-4.713-3.821-8.533-8.533-8.533s-8.533,3.82-8.533,8.533v213.333
				c0.015,14.132,11.468,25.585,25.6,25.6h187.733c14.132-0.015,25.585-11.468,25.6-25.6v-332.8
				c-0.015-14.132-11.468-25.585-25.6-25.6h-9.273c-4.926-31.391-36.527-56.232-76.06-59.387V50.665
				c5.029-1.772,9.38-5.069,12.447-9.431l13.682,11.729c12.755,11.033,31.674,11.033,44.429,0l6.492-5.558
				c6.379-5.515,15.84-5.514,22.217,0.004l6.475,5.546c12.752,11.047,31.683,11.049,44.438,0.004l6.479-5.554
				c6.378-5.519,15.839-5.523,22.221-0.009l6.504,5.583c12.748,11.027,31.656,11.034,44.412,0.017l13.751-11.769
				c3.068,4.366,7.421,7.665,12.454,9.437V69.65c-39.533,3.155-71.134,27.996-76.06,59.387h-9.273
				c-14.132,0.015-25.585,11.468-25.6,25.6v332.8c0.015,14.132,11.468,25.585,25.6,25.6h187.733
				c14.132-0.015,25.585-11.468,25.6-25.6v-332.8C512.003,140.505,500.551,129.053,486.419,129.037z M51.219,180.237h44.172
				c-5.41,5.101-8.33,12.305-7.996,19.733c0.334,7.428,3.887,14.342,9.733,18.937c2.073,1.656,3.279,4.166,3.275,6.82
				s-1.217,5.16-3.296,6.81c-6.164,4.896-9.753,12.34-9.746,20.211c0.007,7.872,3.61,15.309,9.783,20.193
				c2.078,1.661,3.283,4.182,3.271,6.842c-0.012,2.661-1.24,5.17-3.333,6.812c-6.152,4.888-9.739,12.315-9.742,20.173
				c-0.003,7.858,3.577,15.288,9.725,20.181l9.616,7.626l-35.892,35.892c-1.597,1.604-2.496,3.773-2.503,6.036v68.267H51.219
				V180.237z M221.885,180.237v264.533h-17.067V180.237H221.885z M187.752,444.771h-17.067v-68.267
				c-0.007-2.263-0.906-4.432-2.503-6.036l-42.664-42.664c-0.119-0.119-0.279-0.157-0.403-0.268
				c-0.129-0.116-0.189-0.277-0.326-0.386l-17.116-13.571c-2.077-1.663-3.28-4.184-3.267-6.844c0.014-2.661,1.243-5.169,3.337-6.81
				c6.16-4.897,9.746-12.34,9.737-20.209c-0.009-7.87-3.612-15.304-9.783-20.187c-2.072-1.657-3.276-4.168-3.271-6.821
				c0.005-2.653,1.218-5.159,3.296-6.809c6.159-4.892,9.748-12.329,9.746-20.195c-0.002-7.866-3.596-15.3-9.758-20.189
				c-2.069-1.652-3.274-4.156-3.275-6.803c-0.001-2.648,1.203-5.152,3.271-6.805l14.748-11.671h65.298V444.771z M119.485,419.171
				c-4.713,0-8.533,3.82-8.533,8.533v17.067h-25.6v-59.733h68.267v59.733h-25.6v-17.067
				C128.019,422.991,124.198,419.171,119.485,419.171z M119.485,345.904l22.067,22.067H97.419L119.485,345.904z M221.885,487.437
				c-0.006,4.71-3.823,8.527-8.533,8.533H25.619c-4.71-0.006-8.527-3.823-8.533-8.533v-25.6h204.8V487.437z M221.885,154.637v8.533
				h-204.8v-8.533c0.006-4.71,3.823-8.527,8.533-8.533h187.733C218.062,146.11,221.879,149.927,221.885,154.637z M186.724,129.037
				H52.246c5.443-24.176,33.481-42.667,67.239-42.667S181.282,104.861,186.724,129.037z M119.485,35.171
				c-4.713,0-8.533-3.821-8.533-8.533s3.821-8.533,8.533-8.533c4.713,0,8.533,3.821,8.533,8.533
				C128.013,31.348,124.196,35.165,119.485,35.171z M392.552,419.171c-4.713,0-8.533,3.82-8.533,8.533v17.067h-25.6v-59.733h68.267
				v59.733h-25.6v-17.067C401.085,422.991,397.265,419.171,392.552,419.171z M324.285,444.771V180.237h65.298l14.748,11.671
				c2.068,1.653,3.272,4.158,3.271,6.805c-0.001,2.648-1.206,5.151-3.275,6.803c-6.167,4.892-9.761,12.333-9.758,20.205
				c0.002,7.872,3.601,15.311,9.771,20.199c2.074,1.659,3.278,4.172,3.271,6.828c-0.007,2.655-1.225,5.163-3.308,6.81
				c-6.168,4.899-9.758,12.349-9.746,20.226c0.012,7.877,3.625,15.316,9.808,20.195c2.065,1.652,3.267,4.153,3.267,6.798
				c0,2.644-1.202,5.146-3.267,6.798l-17.117,13.575c-0.137,0.109-0.197,0.271-0.326,0.387c-0.124,0.11-0.284,0.148-0.403,0.268
				l-42.664,42.664c-1.597,1.604-2.496,3.773-2.503,6.036v68.267H324.285z M290.152,444.771V180.237h17.067v264.533H290.152z
				 M392.552,345.904l22.067,22.067h-44.133L392.552,345.904z M443.752,376.504c-0.007-2.263-0.906-4.432-2.503-6.036
				l-35.893-35.893l9.617-7.629c6.159-4.901,9.74-12.347,9.725-20.217c-0.015-7.87-3.626-15.302-9.804-20.179
				c-2.075-1.66-3.28-4.176-3.271-6.834s1.23-5.166,3.317-6.812c6.158-4.896,9.744-12.335,9.737-20.202
				c-0.007-7.867-3.605-15.3-9.771-20.186c-2.068-1.653-3.272-4.158-3.271-6.805c0.001-2.648,1.206-5.151,3.275-6.803
				c5.846-4.595,9.399-11.509,9.733-18.938c0.333-7.428-2.586-14.633-7.997-19.734h44.172v264.533h-17.067V376.504z
				 M477.885,180.237h17.067v264.533h-17.067V180.237z M392.552,18.104c4.713,0,8.533,3.821,8.533,8.533s-3.82,8.533-8.533,8.533
				s-8.533-3.821-8.533-8.533C384.025,21.927,387.842,18.11,392.552,18.104z M392.552,86.371c33.758,0,61.796,18.491,67.239,42.667
				H325.313C330.756,104.861,358.794,86.371,392.552,86.371z M290.152,154.637c0.006-4.71,3.823-8.527,8.533-8.533h187.733
				c4.71,0.006,8.527,3.823,8.533,8.533v8.533h-204.8V154.637z M494.952,487.437c-0.006,4.71-3.823,8.527-8.533,8.533H298.685
				c-4.71-0.006-8.527-3.823-8.533-8.533v-25.6h204.8V487.437z"/>
		</g>
	</g>
</g>
<g>
</g>
<g>
</g>
<g>
</g>
<g>
</g>
<g>
</g>
<g>
</g>
<g>
</g>
<g>
</g>
<g>
</g>
<g>
</g>
<g>
</g>
<g>
</g>
<g>
</g>
<g>
</g>
<g>
</g>
</svg>
